<svg xmlns="http://www.w3.org/2000/svg" viewBox="0 0 345.47 333.24"><defs><style>.cls-1,.cls-5{fill:none;}.cls-1{stroke:#e9e4da;stroke-miterlimit:10;stroke-width:19px;}.cls-2{fill:#b73827;}.cls-3{fill:#fff;}.cls-4{fill:#a02d24;}.cls-5{stroke:#fff;stroke-linecap:round;stroke-linejoin:round;stroke-width:10.5px;}</style></defs><title>5beanlogo-stroke</title><g id="Layer_2" data-name="Layer 2"><g id="Layer_1-2" data-name="Layer 1"><path class="cls-1" d="M294.47,273.66c-19.52,21.35-57.13,38.46-97.06,45.59h0c-6,1.08-12,2-17.89,2.67-21.5,2.57-41.07,2.48-54.36-.65-41.3-9.71-92.92-22.64-109.43-98a253.31,253.31,0,0,1-6.09-45.59c-.13-3.83-.15-7.65,0-11.44C11.1,111.65,38,61.57,118.88,24.25c71.69-33.09,149.76-8.66,194.57,54.91S327.82,237.19,294.47,273.66Z"/><path class="cls-2" d="M294.47,273.66c-19.52,21.35-57.13,38.46-97.06,45.59h0c-6,1.08-12,2-17.89,2.67-21.5,2.57-41.07,2.48-54.36-.65-41.3-9.71-92.92-22.64-109.43-98a253.31,253.31,0,0,1-6.09-45.59c-.13-3.83-.15-7.65,0-11.44C11.1,111.65,38,61.57,118.88,24.25c71.69-33.09,149.76-8.66,194.57,54.91S327.82,237.19,294.47,273.66Z"/><path class="cls-3" d="M301.15,99.32c-6-11.08-14.23-20.13-20.08-25.87a2.43,2.43,0,0,0-2.34-.62h0a.46.46,0,0,0-.22.75A116.74,116.74,0,0,1,295.3,96.07c9.46,16.94,12.85,26.73,14,31.16a.29.29,0,0,0,.58-.1C309.61,122.31,308.09,112,301.15,99.32Z"/><path class="cls-3" d="M129.47,304.52a2.71,2.71,0,0,0-2.26-2.67c-13.94-2.4-28-6.63-40.47-13.43C64,276.05,51.11,262.23,46.21,256.29c-.48-.58-1.46-.11-1.15.54,3.57,7.58,13.83,15.92,20.77,20.9,8,5.77,12,13.09,21.63,15.92C95.78,296.11,108,303,127.81,306a1.45,1.45,0,0,0,1.65-1.43Z"/><path class="cls-3" d="M179.48,305.93a185.34,185.34,0,0,1-28.39-.1,2.42,2.42,0,0,0-2.62,2.4h0a1,1,0,0,0,.94,1,133.39,133.39,0,0,0,30.24-2.09A.6.6,0,0,0,179.48,305.93Z"/><path class="cls-3" d="M184.53,29.82a.81.81,0,0,1,.11-1.57c5.66-1.08,20-4.53,46.19,7.32,34.36,15.58,36.87,23.28,36.45,25.22s-6.35-4.11-9.69-5.64-8.69-10.43-42.75-21.5C199.84,28.78,192.43,32.52,184.53,29.82Z"/><path class="cls-4" d="M303.07,177.07a5.5,5.5,0,0,0-7.78.18c-2.29,2.39-3.54,2.65-4,2.65-1.76,0-2.19-.51-2.33-.68-2.41-2.88-.49-13.67.65-20.11,1.61-9,2.77-15.56-.81-19.54a7.64,7.64,0,0,0-6.38-2.48c-7.1.5-13.66,6.88-19,15a74.52,74.52,0,0,1,2-9.31,5.5,5.5,0,0,0-10.45-3.43c-.19.57-3.68,11.43-4.5,31.28-3.24,10.31-6.53,13.07-7.78,13.16h-.24c-.35-.43-2.81-4.07-.47-19.81a175.5,175.5,0,0,1,4-19,5.5,5.5,0,0,0-10.51-3.2A12.25,12.25,0,0,0,226,138c-7.38.26-13.84,5.13-18.18,13.69-.3.6-.59,1.23-.87,1.86a5.49,5.49,0,0,0-.82,1.53c-5.15,15-12.79,32.19-26.23,32.49a6.72,6.72,0,0,1-5.05-2.23,12.39,12.39,0,0,1-2.89-7.71,42.07,42.07,0,0,0,10.24-3.05c8.71-3.95,13.68-10.4,14.37-18.66.44-5.33-1.23-10.71-4.38-14a11.36,11.36,0,0,0-8.56-3.7c-5.25.12-10.57,3.47-14.59,9.2-4.36,6.2-7.12,15.08-8,25.67-.86,10.38,2.68,16.52,5.81,19.84a17.84,17.84,0,0,0,12.93,5.69h.38c9.12-.2,16.71-4.4,23.31-13.15a15.69,15.69,0,0,0,4,7.52,12.56,12.56,0,0,0,9.15,3.58h.6c5.28-.19,10.53-4.14,14.67-9.65a14,14,0,0,0,2.15,3.89,10.92,10.92,0,0,0,8.67,4.09q.44,0,.9,0a13.15,13.15,0,0,0,7.79-3.33,5.48,5.48,0,0,0,4.76,2.8h.25a5.5,5.5,0,0,0,5.25-5.74q-.06-1.46-.11-2.88c.39-4.36,3.57-13.91,8.34-22.65,3.76-6.88,7.38-11.24,10.17-13.36-.27,2.36-.8,5.33-1.21,7.61-1.86,10.45-4,22.29,1.75,29.1,1.76,2.1,5.06,4.61,10.76,4.61h0c4.13,0,8-2,11.93-6.06A5.5,5.5,0,0,0,303.07,177.07Zm-119.2-28c.55.2,2,2.53,1.73,5.84-.58,6.93-7.83,9.93-12.5,11.15C175.7,153.68,181.28,149.17,183.88,149.11Zm45.49,14.12a5.51,5.51,0,0,0-.28,1.55c-.33,10.18-9.22,20.56-12.3,20.68-1.18,0-1.47-.25-1.59-.37-.48-.48-2-2.74-1.74-11.75a42.4,42.4,0,0,1,4.15-16.72c1.73-3.42,4.66-7.52,8.76-7.67h.14a1.28,1.28,0,0,1,1.17.46C229.63,151.58,229.89,158.32,229.37,163.22Z"/><path class="cls-4" d="M158.37,140.13A22.72,22.72,0,0,0,151.28,123c-5.16-4.81-12.79-7.25-20.92-6.67a32.61,32.61,0,0,0-21.58,10.6c-5.53,6-8.7,13.53-8.7,20.78A45.32,45.32,0,0,0,102,161.19a5.5,5.5,0,0,0,10.5-3.28,34.37,34.37,0,0,1-1.37-10.19c0-9,8.57-19.6,20-20.4,5.11-.36,9.71,1,12.65,3.75a11.85,11.85,0,0,1,3.59,9.07c0,9.23-7.24,16.38-17.88,18a128.67,128.67,0,0,1,5.26-13.8,5.5,5.5,0,0,0-10-4.55,154.89,154.89,0,0,0-7.4,20.74c-4.39,16-4.12,27.64.78,34.63,2.38,3.39,7,7.24,15.38,7.24q1.15,0,2.39-.1a19.53,19.53,0,0,0,14.89-8.45A23.75,23.75,0,0,0,155,180.56a18.1,18.1,0,0,0-5.76-13.4,20.14,20.14,0,0,0-4.5-3.12C153.13,158.79,158.37,150.15,158.37,140.13ZM135,191.33c-5.86.47-7.37-1.69-7.94-2.5-2.31-3.29-2.34-9.58-1.11-16.79a5.51,5.51,0,0,0,1.29.06c6.76-.47,11.75.6,14.45,3.12a7.15,7.15,0,0,1,2.26,5.35C144,183.19,142.37,190.81,135,191.33Z"/><path class="cls-4" d="M91.28,162.94c-6.57-4.58-15.64-5.18-22.1-4.1.54-2.88,1.37-6.43,2-9.1.39-1.68.68-2.92.88-3.87.31,0,.67,0,1.08.1,5.07.59,10.89.17,18.31-1.34a5.5,5.5,0,1,0-2.19-10.78c-6.25,1.27-11,1.65-14.84,1.2-3-.35-7.41-.52-10.41,2.15a7.37,7.37,0,0,0-2.49,5.27c-.12.73-.64,3-1.06,4.79-1.16,5-2.61,11.23-2.82,14.79-.12,2-.33,5.81,2.67,8.07,2.76,2.08,5.77,1,7.05.57.25-.09.54-.19.85-.28l.45-.14c3.18-1.16,11.58-1.61,16.32,1.7,2.31,1.62,3.39,3.9,3.39,7.2,0,12.76-8.28,16-15.23,16.51a11.33,11.33,0,0,1-8-3.24c-1.78-1.87-2.46-4.34-2.08-7.54a5.5,5.5,0,0,0-10.92-1.31c-1,8.18,2.2,13.45,5,16.43a22.42,22.42,0,0,0,15.61,6.66c.38,0,.76,0,1.12,0,12.31-.86,25.46-8.54,25.46-27.48C99.37,172.25,96.57,166.64,91.28,162.94Z"/><path class="cls-4" d="M110.62,227.73a3.72,3.72,0,0,1,4.15,3.38l6.83-.48c-1-6.41-5.06-9.28-11-8.86-6.79.48-11.76,4.85-11.76,13.85v4.67c0,8.9,5,12.66,11.76,12.18,6.31-.45,9.94-3.65,11-10.42l-6.83.48c-.43,2.41-1.6,3.79-4.15,4-3,.21-4.58-2.05-4.58-6.72V235.1C106,230.22,107.64,227.94,110.62,227.73Z"/><path class="cls-4" d="M140.89,219.62c-6.79.48-11.76,4.85-11.76,13.85v4.67c0,8.9,5,12.66,11.76,12.18s11.76-4.94,11.76-13.84v-4.67C152.65,222.8,147.68,219.13,140.89,219.62ZM145.47,237c0,4.88-1.6,7.16-4.58,7.37s-4.58-1.84-4.58-6.72V233c0-4.88,1.6-7.16,4.58-7.37s4.58,1.84,4.58,6.72Z"/><polygon class="cls-4" points="161.33 248.42 168.5 247.91 168.5 236.16 178.88 235.42 178.88 229.45 168.5 230.19 168.5 224.05 180.17 223.22 180.17 217.26 161.33 218.6 161.33 248.42"/><polygon class="cls-4" points="187.88 246.54 195.05 246.03 195.05 234.27 205.43 233.53 205.43 227.57 195.05 228.31 195.05 222.17 206.72 221.34 206.72 215.37 187.88 216.71 187.88 246.54"/><polygon class="cls-4" points="214.43 244.65 233.27 243.31 233.27 237.35 221.6 238.18 221.6 231.69 231.98 230.96 231.98 224.99 221.6 225.73 221.6 220.28 233.27 219.45 233.27 213.49 214.43 214.83 214.43 244.65"/><polygon class="cls-4" points="241.62 242.72 260.47 241.38 260.47 235.42 248.79 236.25 248.79 229.76 259.17 229.03 259.17 223.06 248.79 223.8 248.79 218.35 260.47 217.52 260.47 211.56 241.62 212.9 241.62 242.72"/><path class="cls-4" d="M187.54,123.68c5.2-1.45,9.16-3.62,16.3-2.41,7.69,1.62,17.15-8,7-12.46-9-3.52-21.69,8.2-24.25,13.53A.88.88,0,0,0,187.54,123.68Z"/><path class="cls-4" d="M170.37,118.82a1,1,0,0,0,1.73.88c5.55-3.94,16.3-20.69,10.42-30.4-7.19-10.88-16.21,1.79-12.77,10.33C172.6,107.62,170.95,112.58,170.37,118.82Z"/><path class="cls-5" d="M164.8,166.34s20.12-1.88,21.38-16.93c.48-5.79-2.43-11.9-7.34-11.8-6,.13-15.44,8.21-17.24,29.82-1.12,13.51,6.52,19.73,13.51,19.58,9.8-.22,20.89-5.93,31.31-36.2"/><path class="cls-5" d="M229.7,159.66s3.6-22.64-8.41-22.21-17.84,18.14-18.22,29.71,1.82,18,9,17.79,17.22-14.1,17.6-26"/><path class="cls-5" d="M235.93,137.5s-13.2,46.85,2.36,45.76c8.47-.59,13.24-17.11,15.51-28.44"/><path class="cls-5" d="M294.37,175c-2.52,2.63-5.15,4.36-7.95,4.35-20.33,0,1.72-43.54-8.47-42.83-12.49.88-26.07,32.11-26.84,42.83"/><path class="cls-5" d="M124.83,136.05s-26,57.31,5.75,54.76c10-.7,14-10.18,14-16.25,0-6.49-4.72-15.21-22.6-14"/><path class="cls-5" d="M102.3,153.55a39.58,39.58,0,0,1-1.62-11.83c0-11.91,10.9-24.89,25.16-25.89,11.43-.8,22.13,5.39,22.13,18.31,0,12.68-10.36,22.71-25.43,23.76"/><path class="cls-5" d="M52.7,178.24c-1.56,13,10.22,17.32,15.92,16.92,9-.63,20.34-5.63,20.34-22s-20-16.66-27.11-14.07c-2.6.71-3.92,2.17-3.64-2.74s3.88-18.11,3.88-19.58,1.37-2.9,6.76-2.27c5.16.6,10.87-.11,16.58-1.27"/><path class="cls-5" d="M255.41,135.05s-5.54,16.83-4.18,47.65"/><path class="cls-3" d="M108.63,225.33a3.72,3.72,0,0,0-4.15-3.38c-3,.21-4.58,2.49-4.58,7.37V234c0,4.67,1.56,6.94,4.58,6.72,2.55-.18,3.72-1.56,4.15-4l6.83-.48c-1,6.77-4.67,10-11,10.42-6.79.48-11.76-3.27-11.76-12.18v-4.67c0-9,5-13.36,11.76-13.85,5.92-.42,10,2.45,11,8.86Z"/><path class="cls-3" d="M134.75,244.53C128,245,123,241.26,123,232.35v-4.67c0-9,5-13.36,11.76-13.85S146.51,217,146.51,226v4.67C146.51,239.59,141.54,244,134.75,244.53Zm-4.58-12.69c0,4.88,1.6,6.93,4.58,6.72s4.58-2.49,4.58-7.37v-4.67c0-4.88-1.6-6.93-4.58-6.72s-4.58,2.49-4.58,7.37Z"/><path class="cls-3" d="M174,211.48v6l-11.67.83v6.14l10.37-.74v6l-10.37.74v11.76l-7.17.51V212.82Z"/><path class="cls-3" d="M200.58,209.6v6l-11.67.83v6.14l10.37-.74v6l-10.37.74v11.76l-7.17.51V210.94Z"/><path class="cls-3" d="M227.13,207.71v6l-11.67.83V220l10.37-.74v6l-10.37.74v6.48l11.67-.83v6l-18.85,1.34V209.05Z"/><path class="cls-3" d="M254.32,205.78v6l-11.67.83V218l10.37-.74v6l-10.37.74v6.48l11.67-.83v6l-18.85,1.34V207.12Z"/><path class="cls-3" d="M183.79,117.68a.88.88,0,0,1-1-1.34C185.36,111,198,99.28,207.05,102.8c10.19,4.45.73,14.08-7,12.46C193,114.05,189,116.22,183.79,117.68Z"/><path class="cls-3" d="M166.62,112.82a1,1,0,0,0,1.73.88c5.55-3.94,16.3-20.69,10.42-30.4-7.19-10.88-16.21,1.8-12.77,10.33C168.85,101.62,167.2,106.58,166.62,112.82Z"/></g></g></svg>