<svg xmlns="http://www.w3.org/2000/svg" viewBox="0 0 835.95 95.99"><title>ddlogo</title><g id="Layer_2" data-name="Layer 2"><g id="Layer_1-2" data-name="Layer 1"><path d="M66.79.07c18.76,0,37.54.27,56.3-.06,22.59-.4,42.6,15,45.34,42.58C171.45,73,149.86,95.9,119.31,96c-7.88,0-15.76-.08-23.64,0a13.58,13.58,0,0,1-10.4-4.2C77.12,83.52,68.84,75.39,60.8,67,59.61,65.78,58.43,63,59,62c.82-1.44,3.34-2.64,5.15-2.66,17.77-.19,35.53-.11,53.3-.13a36.71,36.71,0,0,0,5.14-.23,11,11,0,0,0-.15-21.81,38.88,38.88,0,0,0-4.71-.16c-26.22,0-52.44-.07-78.66,0C33.45,37,28.92,35.44,25,31.23c-7.27-7.71-15-15-22.3-22.67C1.26,7.1.86,4.7,0,2.73,2.06,1.84,4.11.21,6.18.19,26.38,0,46.58.07,66.79.07Z"/><path d="M370,48.19c0,19.89-16.31,35.52-37,35.52S296,68,296,48.17c0-20,16.51-35.95,37.27-35.78S370,28.25,370,48.19Zm-14.36.34a22.65,22.65,0,1,0-23.12,22.22C344.82,71.14,355.34,61,355.64,48.53Z"/><path d="M458.55,48.44C458.28,68.56,441.8,84,420.82,83.71c-20.71-.25-36.63-16.32-36.3-36.65.31-19.41,17.11-34.95,37.47-34.67C442.65,12.67,458.8,28.6,458.55,48.44ZM444.22,48a22.65,22.65,0,1,0-22.68,22.72A22.84,22.84,0,0,0,444.22,48Z"/><path d="M555.82,48.26c0-9.87.13-19.75-.06-29.63-.06-3.41,1.1-4.55,4.45-4.43,8.86.31,17.81-.35,26.57.68,17.88,2.09,29.86,16.82,29.3,34.86-.55,17.45-13.8,31.25-31.62,32.4-8.27.54-16.6.17-24.89.37-3.15.08-3.83-1.38-3.79-4.19C555.9,68.3,555.82,58.28,555.82,48.26Zm14.65-21.45V69.35c4.22,0,8.21.19,12.17,0,10.15-.56,18-8.64,19.09-19.31,1-10.16-5.45-20-15.22-22C581.43,26.9,576.07,27.17,570.47,26.81Z"/><path d="M221,82.06V14.78c11.2,0,22.21-1.26,32.82.29C271,17.59,282.42,33.6,280.89,50.43,279.23,68.63,265.35,81.79,247.4,82,238.7,82.16,230,82.06,221,82.06Zm14.17-12.88c4.27,0,8.25.23,12.19-.05,10.38-.73,18.44-9.11,19.24-19.71s-5.94-20.14-16.35-22c-4.79-.85-9.86-.15-15.08-.15Z"/><path d="M519.8,56.61,534,81.92c-5.55,0-10,.15-14.49-.13-.84-.05-1.74-1.72-2.34-2.79-3.22-5.74-6.51-11.46-9.46-17.35-1.35-2.68-3-3.65-6-3.61-9,.11-9,0-9,8.75,0,3.72,0,7.45,0,11.17a8,8,0,0,1-.19,2.46,89.87,89.87,0,0,1-11.75,1.4c-.72,0-2.16-2.35-2.18-3.62-.18-16.91-.16-33.81-.2-50.72,0-3.29.06-6.59-.07-9.88-.1-2.5.71-3.65,3.41-3.62,9.46.11,18.92-.14,28.37.12A22,22,0,0,1,530.87,30c2.78,9.37-.42,18.73-8.44,24.72ZM502,45.18c2.29,0,4.59.11,6.86,0a9,9,0,0,0,8.71-8.87,9.19,9.19,0,0,0-8.68-9.4c-2.28-.16-4.57-.05-6.86-.05-9.24,0-9.24,0-9.24,9.16S492.75,45.22,502,45.18Z"/><path d="M821.49,41.29c0-7.95.16-15.36-.07-22.76-.11-3.49.84-4.74,4.51-4.7,10,.11,10-.05,10,10,0,17.76-.09,35.52.07,53.28,0,3.6-.74,5.09-4.71,5-9.74-.19-9.73,0-9.75-9.73,0-5.58-.07-11.16-.13-16.75a4.39,4.39,0,0,0-.46-1H791.61V72c0,11,0,11.07-11,10-1.11-.12-2.92-1.91-2.93-2.94q-.27-30.93,0-61.87c0-1.05,1.84-2.09,2.87-3.09.15-.14.56,0,.84,0,10.27-.31,10.27-.31,10.28,10,0,4.73-.12,9.46.1,14.18,0,1.07,1.21,3,1.9,3C802.74,41.36,811.86,41.29,821.49,41.29Z"/><path d="M695.45,82c-5.19,0-9.45.14-13.69-.12-.85,0-1.93-1.5-2.36-2.53-1.47-3.57-2.51-7.34-4.14-10.83a5.13,5.13,0,0,0-3.62-2.6q-10.53-.37-21.06,0A5.13,5.13,0,0,0,647,68.55c-1.64,3.49-2.58,7.3-4.22,10.78a5.42,5.42,0,0,1-3.62,2.6c-2.81.39-5.72,0-8.58.14-3.26.13-3.62-1.27-2.53-4,4-10,7.91-20,11.84-29.95C644,37.77,648.09,27.38,652.07,17a4.12,4.12,0,0,1,4.37-3.09c12.36-.33,12.36-.39,16.89,11.17q10.2,26,20.4,52C694.23,78.3,694.64,79.62,695.45,82ZM652.79,53.28h16.79l-8-21.58-1,.12C658,38.85,655.48,45.87,652.79,53.28Z"/><path d="M733.16,12.37a30.61,30.61,0,0,1,19.13,6.56c2.13,1.66,2.73,3.23.38,5.14a8.74,8.74,0,0,0-1.51,1.53c-2.66,3.53-5.1,4.82-9.47,1.61A12.92,12.92,0,0,0,727,26.72c-5,2.93-5,8.48,0,11.28a62.56,62.56,0,0,0,9.14,3.63c3.35,1.23,6.83,2.14,10.1,3.55,7,3,11.4,8,11.64,16,.26,8.34-3,14.77-10.36,18.89-11.3,6.35-29.12,3.94-38.6-5-1.81-1.71-2.4-3.1-.21-4.85a12.21,12.21,0,0,0,2.12-2.13c2.52-3.42,4.75-3.57,8.34-.78A18.49,18.49,0,0,0,737.57,70c3.45-1.26,5.88-3.66,5.95-7.62.06-3.78-2.59-5.65-5.62-6.82-6.26-2.42-12.89-4-18.88-7a18,18,0,0,1-2.31-31.09c4-2.75,9.49-3.49,14.31-5.07A7,7,0,0,1,733.16,12.37Z"/></g></g></svg>