<svg xmlns="http://www.w3.org/2000/svg" viewBox="0 0 1204.64 323.19"><defs><style>.cls-1{fill:#e6dfd2;}.cls-2{fill:#b73727;}</style></defs><title>doordashlight</title><g id="Layer_2" data-name="Layer 2"><g id="Layer_1-2" data-name="Layer 1"><rect class="cls-1" width="1204.64" height="323.19"/><path class="cls-2" d="M251.13,113.67c18.77,0,37.54.27,56.3-.06,22.59-.4,42.61,15,45.34,42.58,3,30.42-18.56,53.31-49.11,53.36-7.88,0-15.76-.08-23.64,0a13.58,13.58,0,0,1-10.41-4.2c-8.15-8.27-16.43-16.4-24.47-24.77-1.19-1.24-2.37-4-1.77-5.07.82-1.44,3.35-2.64,5.16-2.66,17.76-.19,35.53-.11,53.29-.13a36.64,36.64,0,0,0,5.14-.23,11,11,0,0,0-.14-21.81,39.12,39.12,0,0,0-4.72-.16c-26.22,0-52.44-.07-78.66.05-5.65,0-10.18-1.57-14.14-5.78-7.27-7.71-15-15-22.3-22.67-1.39-1.46-1.8-3.86-2.66-5.83,2.06-.89,4.12-2.52,6.19-2.54C210.73,113.6,230.93,113.67,251.13,113.67Z"/><path class="cls-2" d="M554.34,161.79c0,19.89-16.3,35.52-37,35.52s-37-15.68-37-35.54c-.05-20.05,16.51-36,37.26-35.78S554.39,141.85,554.34,161.79Zm-14.36.34a22.65,22.65,0,1,0-23.12,22.22C529.17,184.74,539.68,174.64,540,162.13Z"/><path class="cls-2" d="M642.89,162c-.26,20.12-16.74,35.52-37.73,35.27-20.71-.25-36.62-16.32-36.3-36.65.31-19.41,17.11-34.95,37.47-34.67C627,126.27,643.15,142.2,642.89,162Zm-14.32-.4a22.65,22.65,0,1,0-22.68,22.72A22.86,22.86,0,0,0,628.57,161.64Z"/><path class="cls-2" d="M740.17,161.86c0-9.88.12-19.75-.07-29.63-.06-3.41,1.1-4.55,4.46-4.43,8.85.31,17.8-.35,26.57.68C789,130.57,801,145.3,800.42,163.34c-.55,17.45-13.79,31.25-31.62,32.4-8.27.54-16.59.17-24.89.37-3.14.08-3.82-1.38-3.79-4.19C740.24,181.9,740.17,171.88,740.17,161.86Zm14.64-21.45V183c4.23,0,8.21.19,12.18,0,10.15-.56,18-8.64,19.08-19.31,1-10.16-5.44-20-15.21-22C765.78,140.5,760.42,140.77,754.81,140.41Z"/><path class="cls-2" d="M405.35,195.66V128.38c11.2,0,22.22-1.26,32.82.29,17.16,2.52,28.59,18.53,27.06,35.36-1.65,18.2-15.54,31.36-33.49,31.61C423,195.76,414.34,195.66,405.35,195.66Zm14.17-12.88c4.27,0,8.25.23,12.2-.05C442.09,182,450.16,173.61,451,163s-5.94-20.14-16.35-22c-4.8-.85-9.87-.15-15.09-.15Z"/><path class="cls-2" d="M704.15,170.21l14.2,25.31c-5.54,0-10,.15-14.49-.13-.84,0-1.74-1.72-2.34-2.79-3.22-5.74-6.5-11.46-9.46-17.35-1.35-2.68-3-3.65-6-3.61-9,.11-9,0-9,8.75,0,3.72,0,7.45,0,11.17a7.73,7.73,0,0,1-.18,2.46,89.82,89.82,0,0,1-11.76,1.4c-.72,0-2.16-2.35-2.17-3.62-.18-16.91-.17-33.81-.21-50.72,0-3.29.06-6.59-.07-9.88-.1-2.5.72-3.65,3.42-3.62,9.45.11,18.91-.14,28.36.12a22,22,0,0,1,20.74,15.85c2.78,9.36-.42,18.73-8.44,24.72Zm-17.84-11.43c2.28,0,4.58.11,6.86,0a9,9,0,0,0,8.7-8.87,9.18,9.18,0,0,0-8.68-9.4c-2.27-.16-4.57,0-6.86,0-9.24,0-9.24,0-9.24,9.16S677.09,158.82,686.31,158.78Z"/><path class="cls-2" d="M1005.83,154.89c0-7.95.17-15.36-.07-22.76-.11-3.49.85-4.74,4.51-4.7,10,.11,10-.05,10,10,0,17.76-.08,35.52.07,53.28,0,3.6-.73,5.09-4.71,5-9.74-.19-9.73,0-9.75-9.73,0-5.58-.07-11.16-.13-16.75,0-.25-.21-.5-.45-1H976v17.35c0,11,0,11.07-11.05,10-1.11-.12-2.92-1.91-2.93-2.94q-.26-30.93,0-61.87c0-1.05,1.84-2.09,2.87-3.09.15-.14.55,0,.84,0,10.27-.31,10.27-.31,10.27,10,0,4.73-.12,9.46.1,14.18.05,1.07,1.22,3,1.9,3C987.08,155,996.21,154.89,1005.83,154.89Z"/><path class="cls-2" d="M879.8,195.6c-5.2,0-9.46.14-13.7-.12-.85,0-1.93-1.5-2.35-2.53-1.48-3.57-2.51-7.34-4.15-10.83a5.13,5.13,0,0,0-3.62-2.6c-7-.25-14.05-.25-21.06,0a5.15,5.15,0,0,0-3.58,2.63c-1.63,3.49-2.58,7.3-4.22,10.78a5.4,5.4,0,0,1-3.62,2.6c-2.81.39-5.72,0-8.58.14-3.26.13-3.61-1.27-2.53-4,4-10,7.92-20,11.85-30,4.08-10.39,8.2-20.78,12.18-31.21a4.11,4.11,0,0,1,4.36-3.09c12.37-.33,12.36-.39,16.9,11.17q10.19,26,20.39,52C878.58,191.9,879,193.22,879.8,195.6Zm-42.67-28.72h16.79c-2.77-7.5-5.37-14.54-8-21.58l-1,.12Z"/><path class="cls-2" d="M917.5,126a30.61,30.61,0,0,1,19.13,6.56c2.14,1.66,2.73,3.23.38,5.14a9.11,9.11,0,0,0-1.51,1.53c-2.66,3.53-5.1,4.82-9.47,1.61a12.92,12.92,0,0,0-14.65-.49c-5,2.93-5,8.48,0,11.28a62.56,62.56,0,0,0,9.14,3.63c3.35,1.23,6.84,2.14,10.1,3.55,7,3,11.4,8,11.65,16,.25,8.34-3,14.77-10.36,18.89-11.3,6.35-29.12,3.94-38.6-5-1.82-1.71-2.4-3.1-.22-4.85a11.87,11.87,0,0,0,2.12-2.13c2.52-3.42,4.75-3.57,8.34-.78a18.49,18.49,0,0,0,18.33,2.65c3.45-1.26,5.88-3.66,6-7.62.06-3.78-2.59-5.65-5.62-6.82-6.26-2.42-12.89-4-18.88-7a18,18,0,0,1-2.31-31.09c4.06-2.75,9.49-3.49,14.31-5.07A7,7,0,0,1,917.5,126Z"/></g></g></svg>