<svg xmlns="http://www.w3.org/2000/svg" viewBox="0 0 1062.33 112.55"><defs><style>.cls-1{fill:#b73727;}.cls-2{fill:#efeae4;}</style></defs><title>fulldoordashcta</title><g id="Layer_2" data-name="Layer 2"><g id="Layer_1-2" data-name="Layer 1"><rect class="cls-1" x="642.81" width="419.52" height="112.55"/><path class="cls-2" d="M730.26,39.59c6.54,0,13.08.09,19.61,0,7.87-.13,14.84,5.23,15.79,14.83C766.71,65,759.19,73,748.56,73c-2.75,0-5.49,0-8.24,0a4.72,4.72,0,0,1-3.62-1.46c-2.84-2.88-5.72-5.71-8.52-8.63-.42-.43-.83-1.4-.62-1.76a2.42,2.42,0,0,1,1.8-.93c6.18-.07,12.37,0,18.56,0a11.93,11.93,0,0,0,1.79-.09,3.83,3.83,0,0,0-.05-7.59,13,13,0,0,0-1.65-.06c-9.13,0-18.26,0-27.39,0a6.28,6.28,0,0,1-4.93-2c-2.53-2.69-5.21-5.23-7.76-7.9a6.75,6.75,0,0,1-.93-2,6.36,6.36,0,0,1,2.16-.88C716.19,39.56,723.23,39.59,730.26,39.59Z"/><path class="cls-2" d="M835.86,56.34c0,6.93-5.68,12.37-12.88,12.38a12.43,12.43,0,1,1,12.88-12.38Zm-5,.12a7.89,7.89,0,1,0-8.05,7.74A7.92,7.92,0,0,0,830.86,56.46Z"/><path class="cls-2" d="M866.69,56.43c-.09,7-5.83,12.37-13.14,12.28A12.52,12.52,0,0,1,840.91,56c.11-6.76,6-12.17,13.05-12.07S866.78,49.52,866.69,56.43Zm-5-.14a7.89,7.89,0,1,0-7.9,7.91A8,8,0,0,0,861.71,56.29Z"/><path class="cls-2" d="M900.57,56.37c0-3.44,0-6.88,0-10.32,0-1.19.38-1.58,1.55-1.54,3.09.1,6.2-.13,9.25.23a11.78,11.78,0,0,1-.81,23.43c-2.88.18-5.77.06-8.66.13-1.1,0-1.34-.48-1.32-1.46C900.6,63.35,900.57,59.86,900.57,56.37Zm5.1-7.47V63.71c1.47,0,2.86.07,4.24,0A7.18,7.18,0,0,0,916.56,57a7.07,7.07,0,0,0-5.3-7.68A40,40,0,0,0,905.67,48.9Z"/><path class="cls-2" d="M784,68.14V44.71c3.9,0,7.74-.44,11.43.1a11.3,11.3,0,0,1,9.42,12.32,11.73,11.73,0,0,1-11.66,11C790.13,68.17,787.1,68.14,784,68.14Zm4.94-4.49c1.48,0,2.87.09,4.24,0a7.32,7.32,0,0,0,6.7-6.87,7,7,0,0,0-5.69-7.65,31.58,31.58,0,0,0-5.25,0Z"/><path class="cls-2" d="M888,59.27c1.59,2.85,3.16,5.64,5,8.82-1.94,0-3.5,0-5.05,0-.3,0-.61-.6-.82-1-1.12-2-2.26-4-3.29-6a2,2,0,0,0-2.09-1.26c-3.12,0-3.12,0-3.12,3,0,1.3,0,2.59,0,3.89a2.92,2.92,0,0,1-.06.86,31.68,31.68,0,0,1-4.09.49c-.26,0-.76-.82-.76-1.27-.07-5.88-.06-11.77-.07-17.66,0-1.14,0-2.29,0-3.44,0-.87.25-1.27,1.19-1.26,3.29,0,6.59,0,9.88,0a7.79,7.79,0,0,1,4.28,14.13C888.67,58.81,888.39,59,888,59.27Zm-6.22-4c.8,0,1.6,0,2.39,0a3.15,3.15,0,0,0,3-3.09,3.2,3.2,0,0,0-3-3.28c-.79-.05-1.59,0-2.39,0-3.21,0-3.21,0-3.21,3.19S878.61,55.31,881.81,55.29Z"/><path class="cls-2" d="M993.09,53.94c0-2.77.06-5.35,0-7.93,0-1.21.29-1.65,1.57-1.63,3.46,0,3.46,0,3.46,3.49,0,6.18,0,12.37,0,18.55,0,1.26-.26,1.78-1.64,1.75-3.4-.07-3.39,0-3.4-3.39,0-1.94,0-3.89,0-5.83a2.1,2.1,0,0,0-.16-.37h-10.2v6c0,3.83,0,3.85-3.85,3.46a1.49,1.49,0,0,1-1-1q-.09-10.78,0-21.55c0-.36.64-.73,1-1.07,0-.05.19,0,.29,0,3.58-.11,3.58-.11,3.58,3.47,0,1.65,0,3.29,0,4.94,0,.37.43,1,.67,1C986.56,54,989.74,53.94,993.09,53.94Z"/><path class="cls-2" d="M949.2,68.12c-1.81,0-3.29,0-4.77,0-.3,0-.67-.53-.82-.88-.51-1.25-.88-2.56-1.44-3.78a1.8,1.8,0,0,0-1.27-.9c-2.44-.09-4.89-.09-7.33,0a1.79,1.79,0,0,0-1.25.92c-.56,1.21-.89,2.54-1.46,3.75a1.88,1.88,0,0,1-1.27.9,29.73,29.73,0,0,1-3,0c-1.13,0-1.25-.44-.88-1.38,1.4-3.47,2.76-7,4.13-10.43s2.86-7.23,4.24-10.87a1.43,1.43,0,0,1,1.52-1.07c4.31-.12,4.31-.14,5.88,3.89l7.11,18.1C948.77,66.83,948.91,67.29,949.2,68.12Zm-14.86-10h5.85c-1-2.62-1.87-5.07-2.78-7.52l-.35,0Z"/><path class="cls-2" d="M962.33,43.87A10.7,10.7,0,0,1,969,46.15c.75.58,1,1.13.13,1.8a2.9,2.9,0,0,0-.52.53c-.93,1.23-1.78,1.68-3.3.56a4.48,4.48,0,0,0-5.1-.17,2.13,2.13,0,0,0,0,3.93,21.92,21.92,0,0,0,3.18,1.26c1.17.43,2.38.74,3.52,1.24A6,6,0,0,1,971,60.88a6.78,6.78,0,0,1-3.61,6.57c-3.94,2.21-10.14,1.37-13.45-1.74-.63-.59-.83-1.08-.07-1.69a4.32,4.32,0,0,0,.74-.74c.88-1.19,1.65-1.24,2.9-.27a6.43,6.43,0,0,0,6.39.92,2.79,2.79,0,0,0,2.07-2.65c0-1.32-.91-2-2-2.38-2.18-.84-4.49-1.4-6.57-2.43a6.25,6.25,0,0,1-.81-10.82c1.41-1,3.3-1.22,5-1.77A2.28,2.28,0,0,1,962.33,43.87Z"/><path class="cls-1" d="M476.37,69.11c.32-.93.51-1.36.61-1.81q3.74-16.81,7.46-33.63A11.91,11.91,0,0,1,485,31.5c.25-.58.72-1.45,1.17-1.49a32.79,32.79,0,0,1,6.64-.17c1.11.13,1,1.46.78,2.53-1.15,4.77-2.22,9.56-3.35,14.34Q486.34,63.36,482.4,80c-.15.65-.32,1.3-.49,1.94a2.47,2.47,0,0,1-2.69,2.1c-1.91-.11-3.81-.25-5.7-.53a3.59,3.59,0,0,1-3-2.9c-2-6.79-4-13.56-6-20.34a7.15,7.15,0,0,0-1.35-2.72c-.39,1.49-.8,3-1.18,4.46-1.63,6.37-3.24,12.74-4.89,19.1-.67,2.57-1.21,3-3.82,2.93a39.74,39.74,0,0,1-4.21-.42,3.89,3.89,0,0,1-3.56-3.26C442,67.66,438.51,55,435,42.31c-.91-3.29-1.81-6.57-2.68-9.88-.45-1.74,0-2.55,1.78-2.75a23,23,0,0,1,5,0c1.89.2,2.75,1.54,3.19,3.35,1.82,7.52,3.73,15,5.61,22.53q1.48,5.93,3,11.86c.09.38.24.75.57,1.74.39-1.36.67-2.15.84-3q2.87-13.05,5.68-26.1c.64-2.94,1.24-3.48,4.19-3.49a17.27,17.27,0,0,1,3.22.25,4.28,4.28,0,0,1,3.64,3.58c2.19,9.06,4.52,18.08,6.81,27.11C476,67.91,476.08,68.26,476.37,69.11Z"/><path class="cls-1" d="M273.54,60v-2.4q-.12-12.12-.23-24.24c0-3,.54-3.66,3.56-3.83,4.52-.26,4.79.2,5.1,4.47,1.11,15.47.95,31,.95,46.45,0,3.49-.38,3.83-3.89,3.56a5,5,0,0,1-4.6-3.2c-3.88-8.39-7.89-16.71-11.86-25.05a6,6,0,0,0-1.67-2.26c0,.87,0,1.75,0,2.62l0,24.49c0,3.35-.12,3.49-3.55,3.4a16,16,0,0,1-3.45-.42c-2.21-.54-2.54-1-2.55-3.29,0-5.5,0-11,0-16.5q0-15.24,0-30.49c0-3,.61-3.59,3.63-3.79,4.1-.27,5.14.34,6.72,4.05q5.34,12.51,10.67,25c.22.52.48,1,.72,1.51Z"/><path class="cls-1" d="M352,53.58V56q0,12.36.05,24.73c0,3.19-.16,3.37-3.43,3.28a16.7,16.7,0,0,1-3.45-.43c-2.27-.54-2.69-1.12-2.7-3.45q0-11.23,0-22.48,0-12.24,0-24.48c0-2.59.77-3.39,3.34-3.63.33,0,.66-.05,1-.06,3.46-.13,4.59.57,5.94,3.74q5.3,12.39,10.58,24.79a5,5,0,0,0,1.43,2c0-2.44,0-4.89,0-7.33-.09-6.66-.23-13.32-.31-20,0-2.1.66-2.84,2.69-3.16l.24,0c4.75-.6,5.37-.2,5.68,4.54.42,6.48.83,13,.94,19.45.16,9.08.06,18.16.05,27.23,0,3.08-.34,3.36-3.48,3.24a5.24,5.24,0,0,1-5-3.35c-3.87-8.39-7.88-16.71-11.84-25.05-.35-.74-.75-1.45-1.12-2.17Z"/><path class="cls-1" d="M80,83V30.76a16,16,0,0,1,2.59-.55c5.57-.23,11.15-.74,16.7-.51,6.92.29,11.39,3,13.23,10.85,1.87,8,1.73,16.17,1.06,24.32A34.06,34.06,0,0,1,111,76a12.43,12.43,0,0,1-8.47,7.11A20.09,20.09,0,0,1,97.9,84C92,84.27,86.13,83.53,80,83Zm9.5-26.35h0c0,5.41,0,10.82,0,16.22,0,2.28.28,2.59,2.6,2.65a35.87,35.87,0,0,0,5-.21c3.74-.44,4.89-1.59,5.26-5.38a115.35,115.35,0,0,0,0-24.15,39,39,0,0,0-1.24-5.83,3,3,0,0,0-3.35-2.36c-1.74.1-3.49.06-5.24.18-2.63.17-3,.56-3,3.16C89.5,46.14,89.51,51.38,89.51,56.62Z"/><path class="cls-1" d="M245.65,57.36c-.37,3.83-.76,8.3-1.26,12.76a23.94,23.94,0,0,1-.93,3.87c-1.62,5.65-5.48,8.7-11.18,9.67a29.71,29.71,0,0,1-11.16-.19c-6.71-1.4-9.9-6.12-11-12.39a76.7,76.7,0,0,1,.37-30A22.1,22.1,0,0,1,212.44,36a10.27,10.27,0,0,1,6.77-5.48,30.55,30.55,0,0,1,16,0,11.06,11.06,0,0,1,7.05,5.91c1.67,3.16,2.16,6.63,2.57,10.09S245.36,53.29,245.65,57.36Zm-10.83-.82h-.4c0-3.41.13-6.82,0-10.22a54.07,54.07,0,0,0-1-7.14c-.25-1.4-1.07-2.56-2.67-2.48a32.5,32.5,0,0,0-5.65.74,5.2,5.2,0,0,0-3.69,3.43,12.49,12.49,0,0,0-.91,3.86c-.2,7.05-.39,14.11-.33,21.17a41.51,41.51,0,0,0,1.1,8.12c.44,2.08,1.33,2.52,3.43,2.39.91-.06,1.82-.16,2.74-.22,4.26-.27,6.13-1.75,6.59-6C234.47,65.68,234.55,61.1,234.82,56.54Z"/><path class="cls-1" d="M0,56.73A80.63,80.63,0,0,1,1.93,40.6c1.7-7,6-10.67,13.24-11,3.9-.19,7.81-.31,11.62.94a11.26,11.26,0,0,1,6.57,5.4c1.9,3.35,2.43,7.08,2.87,10.78a77.42,77.42,0,0,1-.85,25.09c-.92,4.42-2.7,8.5-7.26,10.41A23.92,23.92,0,0,1,9,82.21c-4.85-2-6.64-6.42-7.43-11.12S.49,61.52,0,56.73Zm11.09.38h.35c0,3.16-.14,6.33.05,9.48a50.51,50.51,0,0,0,1.1,7.62c.38,1.76,1.32,2.27,3.11,2.2,1,0,2-.17,3-.24,4.34-.27,6.52-2,6.72-6.44.34-7.63.29-15.27.33-22.91a26.71,26.71,0,0,0-.46-5.21c-1-5-1.58-5.32-6.2-4.75s-6.64,2.26-7.13,6.82S11.36,52.64,11.09,57.11Z"/><path class="cls-1" d="M153.71,30.63a58.64,58.64,0,0,1,13.61-1.11,25.6,25.6,0,0,1,8.57,1.38,9.31,9.31,0,0,1,6,6.27A25.8,25.8,0,0,1,181.21,55c-.9,2.14-2.71,3.89-4.39,6.21,0,0,.19.66.44,1.24Q181.12,71.24,185,80a16.21,16.21,0,0,1,.76,1.84c.42,1.46,0,2.16-1.45,2.14a34.74,34.74,0,0,1-5.93-.58,4.35,4.35,0,0,1-3.14-2.92c-2.41-5.75-4.92-11.46-7.45-17.3h-5.43v17.3a12,12,0,0,1-.1,2A1.62,1.62,0,0,1,160.57,84c-.91,0-1.83.06-2.74,0-3.29-.22-4.22-1.22-4.22-4.48q0-23.22,0-46.44C153.6,32.36,153.66,31.62,153.71,30.63Zm8.84,22.79a13.13,13.13,0,0,0,7.64-.88,4.35,4.35,0,0,0,2.11-2.28,15,15,0,0,0,0-10,3.62,3.62,0,0,0-4-2.69c-1.08.08-2.16,0-3.24.1-2.46.13-2.7.37-2.72,2.78,0,3.57,0,7.14,0,10.71C162.37,51.88,162.48,52.6,162.55,53.42Z"/><path class="cls-1" d="M42.58,30.57a43.52,43.52,0,0,1,5.23-.73c4.39-.07,8.85-.43,13.18.15,7.06,1,9.82,4,10.77,11a29.33,29.33,0,0,1-.54,11.15,14.2,14.2,0,0,1-5.74,8.58L72.67,77c.67,1.52,1.4,3,2,4.58S74.86,84,73.06,84a23.22,23.22,0,0,1-3.73-.12,6.16,6.16,0,0,1-5.52-4.28c-2.14-5.5-4.63-10.86-7-16.42h-5.3c0,1-.12,1.91-.12,2.8,0,4.74,0,9.48,0,14.23a18.9,18.9,0,0,1-.06,2,1.77,1.77,0,0,1-2,1.81c-.91,0-1.83,0-2.74,0-3.13-.29-4-1.27-4-4.44q0-23,0-45.95Zm8.9,22.86a15.76,15.76,0,0,0,7-.52,3.79,3.79,0,0,0,2.75-2.33A14.65,14.65,0,0,0,61,39.67a3.26,3.26,0,0,0-3.35-2.1c-1.33,0-2.66,0-4,.12-2,.14-2.29.44-2.31,2.42,0,3.56,0,7.13,0,10.7C51.35,51.62,51.43,52.43,51.48,53.43Z"/><path class="cls-1" d="M576.12,61.43H564.49v2.86c0,5.67,0,11.33,0,17,0,2.52-.22,2.78-2.68,2.75a20.42,20.42,0,0,1-4.2-.41c-2.35-.52-2.66-1-2.66-3.43q0-19.86,0-39.74c0-2.75,0-5.5,0-8.24,0-2.22.43-2.59,2.64-2.7.5,0,1,0,1.5,0,3.59.14,4.15.74,4.32,4.24.31,6.07.68,12.14,1,18.21a6.63,6.63,0,0,0,.25.91H576c0-1,.14-1.84.14-2.73,0-5.58,0-11.16,0-16.75a14,14,0,0,1,.11-2.24,1.68,1.68,0,0,1,1.65-1.58l1-.07c4.71-.22,5.56.46,5.88,5.11.79,11.39,1.4,22.78,1.16,34.2-.1,4.25,0,8.5,0,12.75,0,2.12-.33,2.47-2.49,2.47a24.62,24.62,0,0,1-4.7-.44c-2.18-.45-2.56-1-2.57-3.27,0-5.33,0-10.66,0-16Z"/><path class="cls-1" d="M389.41,38.84c.26,4.19.5,8.14.76,12.41h2.89c3.41,0,6.83-.06,10.24,0,2.6.09,3.14.78,3.14,3.4,0,.33,0,.67,0,1-.14,3.46-.55,3.87-3.95,3.88H390.31V74.66h5.33c3.33,0,6.66,0,10,0,3.16,0,4,1,3.65,4.17-.08.65-.27,1.3-.37,2a2.37,2.37,0,0,1-2.16,2.09,12,12,0,0,1-2,.13c-7.07,0-14.15-.06-21.23,0-2.29,0-3.08-.78-3.07-3.07.07-15.74,0-31.47,0-47.21,0-.65.07-1.29.12-2.08,1-.05,1.77-.13,2.58-.13q10.49,0,21,0a5.41,5.41,0,0,1,2,.12c.71.29,1.72.8,1.84,1.38.42,2,.43,4.09-1,5.65a4.46,4.46,0,0,1-2.92.93c-3.91.1-7.83,0-11.74.05C391.44,38.71,390.55,38.78,389.41,38.84Z"/><path class="cls-1" d="M128.75,38.84c.26,4.2.51,8.15.76,12.28,1.13.05,2,.13,2.91.13,3.33,0,6.67,0,10,0,2.83.07,3.51.88,3.43,3.68,0,.25,0,.5,0,.75-.32,3.56-.66,3.87-4.28,3.87H129.65v14.9c.72.05,1.51.15,2.3.15,4.08,0,8.16,0,12.24,0a14.64,14.64,0,0,1,2.48.19,2,2,0,0,1,1.29.64c1.07,1.88.63,3.87.1,5.79-.4,1.5-1.72,1.72-3,1.72q-11.48,0-23,0c-1.59,0-2-.53-2.17-2.1a6.26,6.26,0,0,1,0-.75q0-23.85,0-47.7c0-.49.08-1,.13-1.71.74-.06,1.45-.18,2.16-.18q10.74,0,21.48,0a10.19,10.19,0,0,1,2,.12c1,.19,1.74.72,1.76,1.8a16.82,16.82,0,0,1-.17,3.48c-.38,2-1.35,2.69-3.56,2.71-4,0-8,0-12,0C130.82,38.7,129.93,38.78,128.75,38.84Z"/><path class="cls-1" d="M539.91,38.65c.16,2.77.37,5.09.41,7.41.12,7.91.18,15.83.25,23.74,0,3.83,0,7.67,0,11.5,0,2.46-.29,2.75-2.72,2.75a19.47,19.47,0,0,1-4-.33c-2.71-.57-2.93-.91-2.93-3.71q0-19.12,0-38.25v-2.9c-1.05-.07-1.85-.15-2.66-.16-1.92,0-3.84,0-5.75,0-2.3-.08-2.9-.69-3.08-3a13.35,13.35,0,0,1,0-2c.17-2.42.83-3.07,3.24-3.08q12.24,0,24.5,0a6.88,6.88,0,0,1,2.44.36c.55.21,1.27.78,1.35,1.28a6.58,6.58,0,0,1-1.23,5.65,3.13,3.13,0,0,1-2,.75c-1.66.1-3.34,0-5,0Z"/><path class="cls-1" d="M299.09,74.66h10.44c.66,0,1.33,0,2,0,1.56,0,3.47-.24,4.14,1.54a6,6,0,0,1-.55,5.53,4.31,4.31,0,0,1-3,1.23c-3,.17-6,.06-9,.06-3.58,0-7.15,0-10.73,0-2.74,0-3-.25-3-3V41c0-2.91,0-5.83,0-8.74,0-2.23.44-2.62,2.59-2.77a6.27,6.27,0,0,1,.75,0c3.57.08,5.06.15,5.29,4.89.64,12.8,1,25.6.92,38.42C298.93,73.3,299,73.78,299.09,74.66Z"/><path class="cls-1" d="M323,39l-.37-.19c-1.19-.4-3.1.3-3.42-1.39a20.19,20.19,0,0,1,.05-5.65c.09-.89,1-1.24,1.94-1.23,4.25,0,8.5,0,12.74.05,1.79,0,2.36.75,2.43,2.48a11.39,11.39,0,0,1-.07,1.75c-.36,3-.71,3.41-3.83,4.17.2,11.73.4,23.5.59,35.4.46.08.85.17,1.24.22,3,.34,3.38.85,3.09,3.85C337.09,82,336,83,332.49,83s-7,0-10.5,0c-2.4,0-2.9-.55-3.1-2.92q0-.37,0-.75c-.12-4,.2-4.38,4.06-4.89C323.44,72.69,323.55,41.84,323,39Z"/><path class="cls-1" d="M502.6,39.06a3.6,3.6,0,0,0-.39-.2c-1.19-.41-3.09.28-3.41-1.41a20.06,20.06,0,0,1,.06-5.63c.09-.9,1-1.24,1.92-1.24,4.24,0,8.49,0,12.74.05,1.78,0,2.33.74,2.4,2.5a9.4,9.4,0,0,1,0,1.5c-.25,3.11-.73,3.66-3.86,4.38.2,11.72.39,23.49.6,35.41l1.71.25c2.31.34,2.75.8,2.64,3a16.6,16.6,0,0,1-.45,2.69A3.06,3.06,0,0,1,513.31,83c-4.08,0-8.16.06-12.24,0-1.79,0-2.34-.64-2.59-2.39-.06-.41-.07-.83-.09-1.25-.13-3.92.27-4.39,4.07-4.91C503,72.7,503.1,42,502.6,39.06Z"/></g></g></svg>